<?xml version="1.0" encoding="UTF-8"?>
<svg id="Capa_1" data-name="Capa 1" xmlns="http://www.w3.org/2000/svg" viewBox="0 0 548.6 111.3">
  <defs>
    <style>
      .cls-1 {
        fill: #1d1d1b;
      }

      .cls-2 {
        isolation: isolate;
      }
    </style>
  </defs>
  <path class="cls-1" d="M0,28.1c1-3.2,1.6-6.6,3.2-9.5C8.5,8.4,16.8,1.8,28.4,.2c7-.9,13.6,.8,19.8,4.2,4,2.2,7.6,4.9,10.9,8.1,7.8,7.8,15.6,15.6,23.4,23.3,5.6,5.6,5.6,14.1,0,19.6-17.2,17.3-34.5,34.5-51.7,51.7-2.1,2.1-4.8,3.2-7.5,4.2h-5.1c-.4-.1-.8-.3-1.2-.5-10.3-3-13.5-15.6-5.9-23.2,13.7-13.5,27.3-27.1,40.9-40.7,.4-.4,.7-.8,.9-1-5.1-5.2-10.1-10.4-15.2-15.5-1.1-1.1-2.6-1.9-4.1-2.5-1.8-.7-3.4,0-4.7,1.4-1.2,1.4-1.2,2.9-.4,4.4,.6,1.1,1.4,2.2,2.4,3,5.3,4.9,6.1,12.9,1.7,18.6-4.5,5.8-12.6,7.3-18.5,3.1-6-4.2-10-10.1-12.4-17C1,39.4,.5,37.2,0,35.1c0-2.3,0-4.7,0-7H0Z"/>
  <g class="cls-2">
    <path class="cls-1" d="M156.38,86.77c-6.27,0-12.03-1.1-17.29-3.31-5.26-2.21-9.77-5.24-13.52-9.11-3.75-3.87-6.69-8.43-8.82-13.69-2.13-5.26-3.19-10.95-3.19-17.06s1.06-11.8,3.19-17.06c2.13-5.26,5.07-9.83,8.82-13.69,3.75-3.87,8.26-6.91,13.52-9.11,5.26-2.21,11.02-3.31,17.29-3.31s12.03,1.1,17.29,3.31c5.26,2.21,9.77,5.24,13.52,9.11,3.75,3.87,6.69,8.43,8.82,13.69,2.13,5.26,3.19,10.95,3.19,17.06s-1.06,11.8-3.19,17.06c-2.13,5.26-5.07,9.83-8.82,13.69-3.75,3.87-8.26,6.91-13.52,9.11-5.26,2.21-11.02,3.31-17.29,3.31Zm0-10.44c4.72,0,8.97-.87,12.77-2.61,3.79-1.74,7.04-4.08,9.75-7.02,2.71-2.94,4.8-6.4,6.27-10.39,1.47-3.98,2.21-8.22,2.21-12.71s-.74-8.72-2.21-12.71c-1.47-3.98-3.56-7.45-6.27-10.39-2.71-2.94-5.96-5.28-9.75-7.02-3.79-1.74-8.05-2.61-12.77-2.61s-8.98,.87-12.77,2.61c-3.79,1.74-7.04,4.08-9.75,7.02-2.71,2.94-4.8,6.4-6.27,10.39-1.47,3.99-2.21,8.22-2.21,12.71s.73,8.72,2.21,12.71c1.47,3.99,3.56,7.45,6.27,10.39,2.71,2.94,5.96,5.28,9.75,7.02,3.79,1.74,8.05,2.61,12.77,2.61Z"/>
    <path class="cls-1" d="M209.65,29.67h10.44v8.47h.23c1.31-2.94,3.6-5.32,6.85-7.14,3.25-1.82,7-2.73,11.26-2.73,2.63,0,5.16,.41,7.6,1.22s4.56,2.07,6.38,3.77c1.82,1.7,3.27,3.89,4.35,6.56,1.08,2.67,1.62,5.82,1.62,9.46v35.4h-10.44V52.19c0-2.55-.35-4.74-1.04-6.56-.7-1.82-1.62-3.29-2.79-4.41-1.16-1.12-2.5-1.93-4-2.44-1.51-.5-3.08-.75-4.7-.75-2.17,0-4.18,.35-6.04,1.04-1.86,.7-3.48,1.8-4.87,3.31s-2.48,3.42-3.25,5.74c-.77,2.32-1.16,5.07-1.16,8.24v28.32h-10.44V29.67Z"/>
    <path class="cls-1" d="M279.16,61.01c0,2.4,.52,4.58,1.57,6.56,1.04,1.97,2.42,3.66,4.12,5.05,1.7,1.39,3.67,2.48,5.92,3.25,2.24,.77,4.56,1.16,6.96,1.16,3.25,0,6.07-.75,8.47-2.26,2.4-1.51,4.6-3.5,6.62-5.98l7.89,6.04c-5.8,7.5-13.93,11.26-24.37,11.26-4.33,0-8.26-.74-11.78-2.21-3.52-1.47-6.5-3.5-8.94-6.09-2.44-2.59-4.31-5.65-5.63-9.17-1.32-3.52-1.97-7.33-1.97-11.43s.71-7.91,2.15-11.43c1.43-3.52,3.4-6.58,5.92-9.17,2.51-2.59,5.51-4.62,8.99-6.09,3.48-1.47,7.27-2.21,11.37-2.21,4.87,0,8.99,.85,12.36,2.55,3.37,1.7,6.13,3.93,8.3,6.67,2.17,2.75,3.73,5.84,4.7,9.28,.97,3.44,1.45,6.94,1.45,10.5v3.71h-44.1Zm32.96-8.36c-.08-2.32-.45-4.45-1.1-6.38-.66-1.93-1.64-3.62-2.96-5.05-1.32-1.43-2.96-2.55-4.93-3.37s-4.28-1.22-6.91-1.22-4.89,.48-7.02,1.45c-2.13,.97-3.93,2.22-5.4,3.77-1.47,1.55-2.61,3.27-3.42,5.16-.81,1.9-1.22,3.77-1.22,5.63h32.96Z"/>
  </g>
  <g class="cls-2">
    <path class="cls-1" d="M330.26,2.52h30.52c4.25,0,8.28,.39,12.07,1.16,3.79,.77,7.1,2.11,9.92,4,2.82,1.9,5.07,4.45,6.73,7.66,1.66,3.21,2.5,7.25,2.5,12.13s-.77,8.82-2.32,12.07c-1.55,3.25-3.68,5.84-6.38,7.78-2.71,1.94-5.92,3.31-9.63,4.12s-7.74,1.22-12.07,1.22h-13.23v32.03h-18.1V2.52Zm18.1,34.82h12.07c1.62,0,3.19-.15,4.7-.46,1.51-.31,2.86-.83,4.06-1.57,1.2-.73,2.17-1.74,2.9-3.02,.73-1.28,1.1-2.88,1.1-4.82,0-2.09-.48-3.77-1.45-5.05-.97-1.28-2.21-2.26-3.71-2.96-1.51-.7-3.19-1.14-5.05-1.33-1.86-.19-3.64-.29-5.34-.29h-9.28v19.5Z"/>
    <path class="cls-1" d="M431.57,77.6h-.23c-1.93,3.02-4.51,5.18-7.72,6.5-3.21,1.31-6.6,1.97-10.15,1.97-2.63,0-5.16-.37-7.6-1.1s-4.58-1.84-6.44-3.31c-1.86-1.47-3.33-3.29-4.41-5.45-1.08-2.17-1.62-4.68-1.62-7.54,0-3.25,.6-5.99,1.8-8.24,1.2-2.24,2.82-4.1,4.87-5.57,2.05-1.47,4.39-2.61,7.02-3.42,2.63-.81,5.36-1.41,8.18-1.8,2.82-.39,5.65-.62,8.47-.7,2.82-.08,5.43-.12,7.83-.12,0-3.09-1.1-5.55-3.31-7.37-2.21-1.82-4.82-2.73-7.83-2.73s-5.47,.6-7.83,1.8c-2.36,1.2-4.47,2.84-6.33,4.93l-9.28-9.52c3.25-3.02,7.04-5.28,11.37-6.79,4.33-1.51,8.82-2.26,13.46-2.26,5.11,0,9.3,.64,12.59,1.92,3.29,1.28,5.92,3.15,7.89,5.63,1.97,2.48,3.35,5.51,4.12,9.11,.77,3.6,1.16,7.76,1.16,12.48v28.67h-16.02v-7.08Zm-4.29-17.64c-1.32,0-2.96,.06-4.93,.17s-3.87,.45-5.69,.99c-1.82,.54-3.37,1.35-4.64,2.44-1.28,1.08-1.91,2.59-1.91,4.53,0,2.09,.89,3.64,2.67,4.64,1.78,1.01,3.64,1.51,5.57,1.51,1.7,0,3.35-.23,4.93-.7,1.58-.46,3-1.12,4.24-1.97,1.24-.85,2.22-1.93,2.96-3.25,.74-1.31,1.1-2.86,1.1-4.64v-3.71h-4.29Z"/>
    <path class="cls-1" d="M485.42,44.87c-2.55-3.17-5.92-4.76-10.1-4.76-1.47,0-2.9,.35-4.29,1.04-1.39,.7-2.09,1.9-2.09,3.6,0,1.39,.71,2.42,2.15,3.08,1.43,.66,3.25,1.24,5.45,1.74,2.21,.5,4.56,1.04,7.08,1.62,2.51,.58,4.88,1.49,7.08,2.73,2.21,1.24,4.02,2.92,5.46,5.05,1.43,2.13,2.15,4.97,2.15,8.53s-.79,6.63-2.38,8.99c-1.59,2.36-3.62,4.26-6.09,5.69-2.48,1.43-5.26,2.44-8.36,3.02-3.1,.58-6.15,.87-9.17,.87-3.95,0-7.93-.56-11.95-1.68-4.02-1.12-7.43-3.11-10.21-5.98l10.56-11.72c1.62,2.01,3.42,3.54,5.4,4.58,1.97,1.04,4.27,1.57,6.91,1.57,2.01,0,3.83-.29,5.45-.87,1.62-.58,2.44-1.64,2.44-3.19,0-1.47-.72-2.57-2.15-3.31-1.43-.73-3.25-1.35-5.45-1.86-2.21-.5-4.57-1.04-7.08-1.62-2.52-.58-4.87-1.45-7.08-2.61-2.21-1.16-4.02-2.8-5.46-4.93-1.43-2.13-2.15-4.97-2.15-8.53,0-3.33,.68-6.19,2.03-8.59,1.35-2.4,3.13-4.37,5.34-5.92,2.21-1.55,4.74-2.69,7.6-3.42,2.86-.73,5.76-1.1,8.7-1.1,3.71,0,7.46,.54,11.26,1.62,3.79,1.08,7,3.02,9.63,5.8l-10.68,10.56Z"/>
    <path class="cls-1" d="M534.16,44.87c-2.55-3.17-5.92-4.76-10.1-4.76-1.47,0-2.9,.35-4.29,1.04s-2.09,1.9-2.09,3.6c0,1.39,.71,2.42,2.15,3.08,1.43,.66,3.25,1.24,5.46,1.74,2.21,.5,4.56,1.04,7.08,1.62,2.51,.58,4.87,1.49,7.08,2.73,2.21,1.24,4.02,2.92,5.45,5.05,1.43,2.13,2.15,4.97,2.15,8.53s-.79,6.63-2.38,8.99c-1.59,2.36-3.62,4.26-6.09,5.69-2.48,1.43-5.26,2.44-8.36,3.02-3.09,.58-6.15,.87-9.17,.87-3.95,0-7.93-.56-11.95-1.68-4.02-1.12-7.43-3.11-10.21-5.98l10.56-11.72c1.62,2.01,3.42,3.54,5.4,4.58,1.97,1.04,4.27,1.57,6.91,1.57,2.01,0,3.83-.29,5.46-.87,1.62-.58,2.44-1.64,2.44-3.19,0-1.47-.72-2.57-2.15-3.31-1.43-.73-3.25-1.35-5.46-1.86-2.21-.5-4.57-1.04-7.08-1.62-2.51-.58-4.87-1.45-7.08-2.61-2.21-1.16-4.02-2.8-5.45-4.93-1.43-2.13-2.15-4.97-2.15-8.53,0-3.33,.68-6.19,2.03-8.59,1.35-2.4,3.13-4.37,5.34-5.92,2.2-1.55,4.74-2.69,7.6-3.42,2.86-.73,5.76-1.1,8.7-1.1,3.71,0,7.47,.54,11.26,1.62,3.79,1.08,7,3.02,9.63,5.8l-10.68,10.56Z"/>
  </g>
</svg>